<svg xmlns="http://www.w3.org/2000/svg" viewBox="0 0 360 440" role="img" aria-label="Stylized Warren Buffett illustration">
<defs>
  <linearGradient id="bg" x1="0" y1="0" x2="1" y2="1"><stop stop-color="#2B164E"/><stop offset="1" stop-color="#08070F"/></linearGradient>
  <radialGradient id="halo" cx="50%" cy="32%" r="55%"><stop stop-color="#B58CFF" stop-opacity=".75"/><stop offset="1" stop-color="#08070F" stop-opacity="0"/></radialGradient>
</defs>
<rect width="360" height="440" rx="36" fill="url(#bg)"/>
<rect width="360" height="440" rx="36" fill="url(#halo)"/>
<path d="M72 416c11-76 52-120 109-120s98 44 109 120H72Z" fill="#D8D4DF"/>
<path d="M124 322 181 410l55-88c-30-17-76-17-112 0Z" fill="#0B0A12"/>
<path d="M167 332h28l-8 74h-13l-7-74Z" fill="#F8F4FF"/>
<path d="M136 135c4-52 33-83 78-78 44 5 68 43 62 93l-9 77c-5 45-35 74-76 72s-67-33-72-77l-8-70c-1-11 7-18 25-17Z" fill="#E7E3EA"/>
<path d="M130 123c18-44 60-77 108-54 28 13 43 36 43 68-27-13-55-17-83-13-24 4-46 8-68-1Z" fill="#F7F5FA"/>
<path d="M151 171c12-9 30-9 43 0M218 171c13-9 30-8 42 1" stroke="#15121D" stroke-width="7" stroke-linecap="round"/>
<rect x="144" y="186" width="50" height="27" rx="13" fill="none" stroke="#191622" stroke-width="6"/>
<rect x="214" y="186" width="50" height="27" rx="13" fill="none" stroke="#191622" stroke-width="6"/>
<path d="M194 199h20" stroke="#191622" stroke-width="6"/>
<path d="M203 198c-2 18-5 30-11 38 9 5 19 4 27-1" stroke="#8B8791" stroke-width="4" fill="none" stroke-linecap="round"/>
<path d="M168 250c18 16 43 16 62 0" stroke="#2B2633" stroke-width="6" fill="none" stroke-linecap="round"/>
<path d="M128 302c-27 20-47 55-56 114h218c-9-59-30-94-56-114l-54 89-52-89Z" fill="#191622"/>
<path d="M88 416h184" stroke="#D6F74D" stroke-width="5" stroke-linecap="round"/>
<text x="32" y="52" font-family="Outfit, Arial" font-size="16" fill="#D6F74D" font-weight="800">VALUE FIRST</text>
<text x="32" y="76" font-family="Outfit, Arial" font-size="13" fill="#C8BEE8">businesses before prices</text>
</svg>
